<svg xmlns="http://www.w3.org/2000/svg" xmlns:xlink="http://www.w3.org/1999/xlink" width="2000" zoomAndPan="magnify" viewBox="0 0 1500 299.999988" height="400" preserveAspectRatio="xMidYMid meet" version="1.0"><defs><g/><clipPath id="3030b58890"><rect x="0" width="1500" y="0" height="271"/></clipPath></defs><g transform="matrix(1, 0, 0, 1, 0, 14)"><g clip-path="url(#3030b58890)"><g fill="#000000" fill-opacity="1"><g transform="translate(-16.811117, 216.86062)"><g><path d="M 26.28125 0 C 24.039062 0 22.132812 -0.859375 20.5625 -2.578125 C 18.988281 -4.304688 18.203125 -6.289062 18.203125 -8.53125 L 18.203125 -157.5 C 18.203125 -159.75 19.023438 -161.734375 20.671875 -163.453125 C 22.316406 -165.179688 24.1875 -166.046875 26.28125 -166.046875 L 69.203125 -166.046875 C 76.691406 -166.046875 83.429688 -164.132812 89.421875 -160.3125 C 95.410156 -156.488281 100.203125 -151.429688 103.796875 -145.140625 C 107.398438 -138.859375 109.203125 -131.972656 109.203125 -124.484375 C 109.203125 -110.847656 101.785156 -100.507812 86.953125 -93.46875 C 109.421875 -85.382812 120.65625 -70.851562 120.65625 -49.875 C 120.65625 -40.738281 118.445312 -32.390625 114.03125 -24.828125 C 109.613281 -17.265625 103.769531 -11.234375 96.5 -6.734375 C 89.238281 -2.242188 81.265625 0 72.578125 0 Z M 34.609375 -99.765625 L 69.203125 -99.765625 C 73.992188 -99.765625 78.148438 -100.925781 81.671875 -103.25 C 85.191406 -105.570312 87.960938 -108.640625 89.984375 -112.453125 C 92.003906 -116.273438 93.015625 -120.285156 93.015625 -124.484375 C 93.015625 -128.828125 91.96875 -132.867188 89.875 -136.609375 C 87.78125 -140.359375 84.929688 -143.351562 81.328125 -145.59375 C 77.734375 -147.84375 73.691406 -148.96875 69.203125 -148.96875 L 34.609375 -148.96875 Z M 34.609375 -16.859375 L 72.578125 -16.859375 C 78.710938 -16.859375 84.175781 -18.425781 88.96875 -21.5625 C 93.769531 -24.707031 97.515625 -28.789062 100.203125 -33.8125 C 102.898438 -38.832031 104.25 -44.1875 104.25 -49.875 C 104.25 -55.875 102.828125 -61.378906 99.984375 -66.390625 C 97.140625 -71.410156 93.359375 -75.414062 88.640625 -78.40625 C 83.921875 -81.40625 78.566406 -82.90625 72.578125 -82.90625 L 34.609375 -82.90625 Z M 34.609375 -16.859375 "/></g></g></g><g fill="#000000" fill-opacity="1"><g transform="translate(110.36432, 216.86062)"><g><path d="M 63.59375 0 C 54.445312 0 46.242188 -2.242188 38.984375 -6.734375 C 31.722656 -11.234375 25.992188 -17.1875 21.796875 -24.59375 C 17.597656 -32.007812 15.5 -39.988281 15.5 -48.53125 L 15.5 -62.234375 C 15.5 -71.078125 17.632812 -79.164062 21.90625 -86.5 C 26.175781 -93.84375 31.941406 -99.722656 39.203125 -104.140625 C 46.472656 -108.554688 54.601562 -110.765625 63.59375 -110.765625 C 72.875 -110.765625 81.109375 -108.519531 88.296875 -104.03125 C 95.492188 -99.539062 101.1875 -93.625 105.375 -86.28125 C 109.570312 -78.9375 111.671875 -70.921875 111.671875 -62.234375 L 111.671875 -48.53125 C 111.671875 -39.394531 109.457031 -31.15625 105.03125 -23.8125 C 100.613281 -16.476562 94.773438 -10.675781 87.515625 -6.40625 C 80.253906 -2.132812 72.28125 0 63.59375 0 Z M 63.59375 -16.625 C 69.425781 -16.625 74.703125 -18.082031 79.421875 -21 C 84.140625 -23.925781 87.921875 -27.820312 90.765625 -32.6875 C 93.617188 -37.5625 95.046875 -42.84375 95.046875 -48.53125 L 95.046875 -62.234375 C 95.046875 -68.078125 93.660156 -73.394531 90.890625 -78.1875 C 88.117188 -82.976562 84.332031 -86.832031 79.53125 -89.75 C 74.738281 -92.675781 69.425781 -94.140625 63.59375 -94.140625 C 57.59375 -94.140625 52.195312 -92.640625 47.40625 -89.640625 C 42.613281 -86.648438 38.867188 -82.757812 36.171875 -77.96875 C 33.472656 -73.175781 32.125 -67.929688 32.125 -62.234375 L 32.125 -48.53125 C 32.125 -42.539062 33.625 -37.148438 36.625 -32.359375 C 39.625 -27.566406 43.519531 -23.742188 48.3125 -20.890625 C 53.101562 -18.046875 58.195312 -16.625 63.59375 -16.625 Z M 63.59375 -16.625 "/></g></g></g><g fill="#000000" fill-opacity="1"><g transform="translate(237.539757, 216.86062)"><g><path d="M 63.59375 0 C 54.445312 0 46.242188 -2.242188 38.984375 -6.734375 C 31.722656 -11.234375 25.992188 -17.1875 21.796875 -24.59375 C 17.597656 -32.007812 15.5 -39.988281 15.5 -48.53125 L 15.5 -62.234375 C 15.5 -71.078125 17.632812 -79.164062 21.90625 -86.5 C 26.175781 -93.84375 31.941406 -99.722656 39.203125 -104.140625 C 46.472656 -108.554688 54.601562 -110.765625 63.59375 -110.765625 C 72.875 -110.765625 81.109375 -108.519531 88.296875 -104.03125 C 95.492188 -99.539062 101.1875 -93.625 105.375 -86.28125 C 109.570312 -78.9375 111.671875 -70.921875 111.671875 -62.234375 L 111.671875 -48.53125 C 111.671875 -39.394531 109.457031 -31.15625 105.03125 -23.8125 C 100.613281 -16.476562 94.773438 -10.675781 87.515625 -6.40625 C 80.253906 -2.132812 72.28125 0 63.59375 0 Z M 63.59375 -16.625 C 69.425781 -16.625 74.703125 -18.082031 79.421875 -21 C 84.140625 -23.925781 87.921875 -27.820312 90.765625 -32.6875 C 93.617188 -37.5625 95.046875 -42.84375 95.046875 -48.53125 L 95.046875 -62.234375 C 95.046875 -68.078125 93.660156 -73.394531 90.890625 -78.1875 C 88.117188 -82.976562 84.332031 -86.832031 79.53125 -89.75 C 74.738281 -92.675781 69.425781 -94.140625 63.59375 -94.140625 C 57.59375 -94.140625 52.195312 -92.640625 47.40625 -89.640625 C 42.613281 -86.648438 38.867188 -82.757812 36.171875 -77.96875 C 33.472656 -73.175781 32.125 -67.929688 32.125 -62.234375 L 32.125 -48.53125 C 32.125 -42.539062 33.625 -37.148438 36.625 -32.359375 C 39.625 -27.566406 43.519531 -23.742188 48.3125 -20.890625 C 53.101562 -18.046875 58.195312 -16.625 63.59375 -16.625 Z M 63.59375 -16.625 "/></g></g></g><g fill="#000000" fill-opacity="1"><g transform="translate(364.715194, 216.86062)"><g><path d="M 32.125 0 C 29.882812 0 27.976562 -0.820312 26.40625 -2.46875 C 24.832031 -4.113281 24.046875 -6.132812 24.046875 -8.53125 L 24.046875 -157.5 C 24.046875 -159.75 24.789062 -161.734375 26.28125 -163.453125 C 27.78125 -165.179688 29.726562 -166.046875 32.125 -166.046875 C 34.519531 -166.046875 36.46875 -165.179688 37.96875 -163.453125 C 39.46875 -161.734375 40.21875 -159.75 40.21875 -157.5 L 40.21875 -51.671875 L 99.984375 -108.53125 C 101.628906 -110.019531 103.503906 -110.765625 105.609375 -110.765625 C 107.847656 -110.765625 109.753906 -109.941406 111.328125 -108.296875 C 112.898438 -106.648438 113.6875 -104.628906 113.6875 -102.234375 C 113.6875 -99.679688 112.863281 -97.582031 111.21875 -95.9375 L 75.9375 -62.46875 L 114.359375 -13.9375 C 115.554688 -12.28125 116.15625 -10.476562 116.15625 -8.53125 C 116.15625 -5.84375 115.332031 -3.75 113.6875 -2.25 C 112.039062 -0.75 110.171875 0 108.078125 0 C 105.523438 0 103.425781 -1.046875 101.78125 -3.140625 L 63.8125 -51 L 40.21875 -28.53125 L 40.21875 -8.53125 C 40.21875 -5.84375 39.394531 -3.75 37.75 -2.25 C 36.101562 -0.75 34.226562 0 32.125 0 Z M 32.125 0 "/></g></g></g><g fill="#000000" fill-opacity="1"><g transform="translate(491.890632, 216.86062)"><g/></g></g><g fill="#000000" fill-opacity="1"><g transform="translate(619.066069, 216.86062)"><g><path d="M 63.59375 0 C 61.1875 0 59.195312 -0.820312 57.625 -2.46875 C 56.050781 -4.113281 55.265625 -6.132812 55.265625 -8.53125 L 55.265625 -148.96875 L 9.21875 -148.96875 C 6.820312 -148.96875 4.835938 -149.789062 3.265625 -151.4375 C 1.691406 -153.082031 0.90625 -155.101562 0.90625 -157.5 C 0.90625 -160.050781 1.691406 -162.113281 3.265625 -163.6875 C 4.835938 -165.257812 6.820312 -166.046875 9.21875 -166.046875 L 117.96875 -166.046875 C 120.363281 -166.046875 122.347656 -165.257812 123.921875 -163.6875 C 125.492188 -162.113281 126.28125 -160.050781 126.28125 -157.5 C 126.28125 -155.101562 125.492188 -153.082031 123.921875 -151.4375 C 122.347656 -149.789062 120.363281 -148.96875 117.96875 -148.96875 L 71.90625 -148.96875 L 71.90625 -8.53125 C 71.90625 -6.132812 71.117188 -4.113281 69.546875 -2.46875 C 67.972656 -0.820312 65.988281 0 63.59375 0 Z M 63.59375 0 "/></g></g></g><g fill="#000000" fill-opacity="1"><g transform="translate(746.241506, 216.86062)"><g><path d="M 21.125 0 C 19.019531 0 17.179688 -0.785156 15.609375 -2.359375 C 14.035156 -3.929688 13.25 -5.765625 13.25 -7.859375 C 13.25 -9.960938 14.035156 -11.800781 15.609375 -13.375 C 17.179688 -14.945312 19.019531 -15.734375 21.125 -15.734375 L 34.609375 -15.734375 L 34.609375 -102.90625 C 34.609375 -105.457031 35.429688 -107.40625 37.078125 -108.75 C 38.722656 -110.09375 40.441406 -110.765625 42.234375 -110.765625 C 44.335938 -110.765625 46.175781 -110.015625 47.75 -108.515625 C 49.320312 -107.023438 50.109375 -105.15625 50.109375 -102.90625 L 50.109375 -89.65625 C 52.648438 -95.789062 56.765625 -100.84375 62.453125 -104.8125 C 68.148438 -108.78125 74.96875 -110.765625 82.90625 -110.765625 C 87.101562 -110.765625 91.484375 -110.164062 96.046875 -108.96875 C 100.617188 -107.769531 104.585938 -106.125 107.953125 -104.03125 C 111.328125 -101.9375 113.238281 -99.460938 113.6875 -96.609375 C 113.988281 -95.117188 113.6875 -93.25 112.78125 -91 C 111.882812 -88.75 109.789062 -87.625 106.5 -87.625 C 104.101562 -87.625 101.816406 -88.257812 99.640625 -89.53125 C 97.472656 -90.8125 95.078125 -92.050781 92.453125 -93.25 C 89.835938 -94.445312 86.359375 -95.046875 82.015625 -95.046875 C 76.171875 -95.046875 70.8125 -93.582031 65.9375 -90.65625 C 61.070312 -87.738281 57.21875 -83.84375 54.375 -78.96875 C 51.53125 -74.101562 50.109375 -68.601562 50.109375 -62.46875 L 50.109375 -15.734375 L 81.5625 -15.734375 C 83.65625 -15.734375 85.488281 -14.945312 87.0625 -13.375 C 88.632812 -11.800781 89.421875 -9.960938 89.421875 -7.859375 C 89.421875 -5.765625 88.632812 -3.929688 87.0625 -2.359375 C 85.488281 -0.785156 83.65625 0 81.5625 0 Z M 21.125 0 "/></g></g></g><g fill="#000000" fill-opacity="1"><g transform="translate(873.41699, 216.86062)"><g><path d="M 50.328125 0 C 38.640625 0 29.578125 -3.03125 23.140625 -9.09375 C 16.703125 -15.164062 13.484375 -22.921875 13.484375 -32.359375 C 13.484375 -42.242188 16.890625 -50.144531 23.703125 -56.0625 C 30.515625 -61.976562 39.316406 -65.007812 50.109375 -65.15625 C 59.097656 -65.3125 66.132812 -65.425781 71.21875 -65.5 C 76.3125 -65.570312 80.128906 -65.796875 82.671875 -66.171875 C 85.222656 -66.546875 87.175781 -67.109375 88.53125 -67.859375 C 90.769531 -69.953125 91.890625 -72.347656 91.890625 -75.046875 C 91.890625 -80.140625 89.226562 -84.742188 83.90625 -88.859375 C 78.59375 -92.984375 71.742188 -95.046875 63.359375 -95.046875 C 56.316406 -95.046875 50.472656 -93.734375 45.828125 -91.109375 C 41.191406 -88.484375 37.453125 -84.550781 34.609375 -79.3125 C 34.003906 -78.257812 33.210938 -77.207031 32.234375 -76.15625 C 31.265625 -75.113281 29.734375 -74.59375 27.640625 -74.59375 C 25.390625 -74.59375 23.476562 -75.226562 21.90625 -76.5 C 20.332031 -77.78125 19.546875 -79.765625 19.546875 -82.453125 C 19.546875 -87.398438 21.601562 -92.007812 25.71875 -96.28125 C 29.84375 -100.550781 35.160156 -104.03125 41.671875 -106.71875 C 48.191406 -109.414062 55.125 -110.765625 62.46875 -110.765625 C 70.101562 -110.765625 77.328125 -109.265625 84.140625 -106.265625 C 90.960938 -103.273438 96.546875 -99.117188 100.890625 -93.796875 C 105.234375 -88.484375 107.40625 -82.234375 107.40625 -75.046875 L 107.40625 -7.859375 C 107.40625 -5.460938 106.578125 -3.550781 104.921875 -2.125 C 103.273438 -0.707031 101.476562 0 99.53125 0 C 97.4375 0 95.640625 -0.75 94.140625 -2.25 C 92.640625 -3.75 91.890625 -5.617188 91.890625 -7.859375 L 91.890625 -18.203125 C 86.804688 -11.460938 80.367188 -6.742188 72.578125 -4.046875 C 64.785156 -1.347656 57.367188 0 50.328125 0 Z M 53.46875 -15.953125 C 64.40625 -15.953125 73.539062 -18.5 80.875 -23.59375 C 88.21875 -28.6875 91.890625 -36.25 91.890625 -46.28125 L 91.890625 -56.84375 C 89.347656 -55.5 86.46875 -54.523438 83.25 -53.921875 C 80.03125 -53.328125 76.019531 -52.914062 71.21875 -52.6875 C 66.425781 -52.46875 60.210938 -52.28125 52.578125 -52.125 C 45.234375 -51.976562 39.578125 -50.367188 35.609375 -47.296875 C 31.640625 -44.222656 29.65625 -39.617188 29.65625 -33.484375 C 29.65625 -27.035156 31.789062 -22.5 36.0625 -19.875 C 40.332031 -17.257812 46.132812 -15.953125 53.46875 -15.953125 Z M 53.46875 -15.953125 "/></g></g></g><g fill="#000000" fill-opacity="1"><g transform="translate(1000.59238, 216.86062)"><g><path d="M 66.734375 0 C 58.046875 0 50.066406 -2.28125 42.796875 -6.84375 C 35.535156 -11.414062 29.769531 -17.367188 25.5 -24.703125 C 21.226562 -32.046875 19.09375 -39.988281 19.09375 -48.53125 L 19.09375 -62.234375 C 19.09375 -71.367188 21.300781 -79.566406 25.71875 -86.828125 C 30.144531 -94.097656 35.988281 -99.90625 43.25 -104.25 C 50.519531 -108.59375 58.421875 -110.765625 66.953125 -110.765625 C 75.640625 -110.765625 83.765625 -108.476562 91.328125 -103.90625 C 98.898438 -99.34375 104.707031 -93.242188 108.75 -85.609375 C 109.5 -84.109375 109.875 -82.757812 109.875 -81.5625 C 109.875 -79.46875 109.046875 -77.59375 107.390625 -75.9375 C 105.742188 -74.289062 103.800781 -73.46875 101.5625 -73.46875 C 98.863281 -73.46875 96.800781 -74.550781 95.375 -76.71875 C 93.957031 -78.894531 92.425781 -80.957031 90.78125 -82.90625 C 87.925781 -86.351562 84.398438 -89.085938 80.203125 -91.109375 C 76.015625 -93.128906 71.597656 -94.140625 66.953125 -94.140625 C 61.265625 -94.140625 56.019531 -92.675781 51.21875 -89.75 C 46.425781 -86.832031 42.609375 -82.976562 39.765625 -78.1875 C 36.921875 -73.394531 35.5 -68.078125 35.5 -62.234375 L 35.5 -48.53125 C 35.5 -42.6875 36.921875 -37.367188 39.765625 -32.578125 C 42.609375 -27.785156 46.425781 -23.925781 51.21875 -21 C 56.019531 -18.082031 61.265625 -16.625 66.953125 -16.625 C 72.203125 -16.625 77.109375 -17.894531 81.671875 -20.4375 C 86.242188 -22.988281 90.023438 -26.507812 93.015625 -31 C 93.765625 -32.5 94.925781 -33.957031 96.5 -35.375 C 98.070312 -36.800781 99.832031 -37.515625 101.78125 -37.515625 C 103.875 -37.515625 105.742188 -36.65625 107.390625 -34.9375 C 109.046875 -33.21875 109.875 -31.304688 109.875 -29.203125 C 109.875 -27.710938 109.5 -26.367188 108.75 -25.171875 C 104.707031 -17.523438 98.863281 -11.414062 91.21875 -6.84375 C 83.582031 -2.28125 75.421875 0 66.734375 0 Z M 66.734375 0 "/></g></g></g><g fill="#000000" fill-opacity="1"><g transform="translate(1127.76777, 216.86062)"><g><path d="M 32.125 0 C 29.882812 0 27.976562 -0.820312 26.40625 -2.46875 C 24.832031 -4.113281 24.046875 -6.132812 24.046875 -8.53125 L 24.046875 -157.5 C 24.046875 -159.75 24.789062 -161.734375 26.28125 -163.453125 C 27.78125 -165.179688 29.726562 -166.046875 32.125 -166.046875 C 34.519531 -166.046875 36.46875 -165.179688 37.96875 -163.453125 C 39.46875 -161.734375 40.21875 -159.75 40.21875 -157.5 L 40.21875 -51.671875 L 99.984375 -108.53125 C 101.628906 -110.019531 103.503906 -110.765625 105.609375 -110.765625 C 107.847656 -110.765625 109.753906 -109.941406 111.328125 -108.296875 C 112.898438 -106.648438 113.6875 -104.628906 113.6875 -102.234375 C 113.6875 -99.679688 112.863281 -97.582031 111.21875 -95.9375 L 75.9375 -62.46875 L 114.359375 -13.9375 C 115.554688 -12.28125 116.15625 -10.476562 116.15625 -8.53125 C 116.15625 -5.84375 115.332031 -3.75 113.6875 -2.25 C 112.039062 -0.75 110.171875 0 108.078125 0 C 105.523438 0 103.425781 -1.046875 101.78125 -3.140625 L 63.8125 -51 L 40.21875 -28.53125 L 40.21875 -8.53125 C 40.21875 -5.84375 39.394531 -3.75 37.75 -2.25 C 36.101562 -0.75 34.226562 0 32.125 0 Z M 32.125 0 "/></g></g></g><g fill="#000000" fill-opacity="1"><g transform="translate(1254.943254, 216.86062)"><g><path d="M 112.34375 -57.296875 C 112.34375 -54.003906 111.519531 -51.609375 109.875 -50.109375 C 108.226562 -48.609375 106.28125 -47.859375 104.03125 -47.859375 L 32.796875 -47.859375 C 32.796875 -41.867188 34.296875 -36.515625 37.296875 -31.796875 C 40.296875 -27.078125 44.226562 -23.367188 49.09375 -20.671875 C 53.957031 -17.972656 59.3125 -16.625 65.15625 -16.625 C 72.195312 -16.625 77.664062 -18.347656 81.5625 -21.796875 C 85.457031 -25.242188 88.898438 -29.0625 91.890625 -33.25 C 92.640625 -34.445312 93.613281 -35.457031 94.8125 -36.28125 C 96.007812 -37.101562 97.359375 -37.515625 98.859375 -37.515625 C 100.960938 -37.515625 102.910156 -36.765625 104.703125 -35.265625 C 106.503906 -33.773438 107.40625 -32.054688 107.40625 -30.109375 C 107.40625 -28.609375 107.03125 -26.960938 106.28125 -25.171875 C 104.632812 -21.117188 101.710938 -17.179688 97.515625 -13.359375 C 93.316406 -9.546875 88.296875 -6.363281 82.453125 -3.8125 C 76.617188 -1.269531 70.476562 0 64.03125 0 C 55.34375 0 47.363281 -2.207031 40.09375 -6.625 C 32.832031 -11.039062 27.03125 -16.921875 22.6875 -24.265625 C 18.34375 -31.609375 16.171875 -39.695312 16.171875 -48.53125 L 16.171875 -62.234375 C 16.171875 -71.078125 18.304688 -79.164062 22.578125 -86.5 C 26.847656 -93.84375 32.691406 -99.722656 40.109375 -104.140625 C 47.523438 -108.554688 55.800781 -110.765625 64.9375 -110.765625 C 74.675781 -110.765625 83.0625 -108.367188 90.09375 -103.578125 C 97.132812 -98.785156 102.601562 -92.34375 106.5 -84.25 C 110.394531 -76.164062 112.34375 -67.179688 112.34375 -57.296875 Z M 64.703125 -94.140625 C 58.410156 -94.140625 52.90625 -92.71875 48.1875 -89.875 C 43.476562 -87.03125 39.773438 -83.285156 37.078125 -78.640625 C 34.378906 -73.992188 32.953125 -68.898438 32.796875 -63.359375 L 95.265625 -63.359375 C 94.210938 -73.546875 90.84375 -81.222656 85.15625 -86.390625 C 79.46875 -91.554688 72.648438 -94.140625 64.703125 -94.140625 Z M 64.703125 -94.140625 "/></g></g></g><g fill="#000000" fill-opacity="1"><g transform="translate(1382.118739, 216.86062)"><g><path d="M 21.125 0 C 19.019531 0 17.179688 -0.785156 15.609375 -2.359375 C 14.035156 -3.929688 13.25 -5.765625 13.25 -7.859375 C 13.25 -9.960938 14.035156 -11.800781 15.609375 -13.375 C 17.179688 -14.945312 19.019531 -15.734375 21.125 -15.734375 L 34.609375 -15.734375 L 34.609375 -102.90625 C 34.609375 -105.457031 35.429688 -107.40625 37.078125 -108.75 C 38.722656 -110.09375 40.441406 -110.765625 42.234375 -110.765625 C 44.335938 -110.765625 46.175781 -110.015625 47.75 -108.515625 C 49.320312 -107.023438 50.109375 -105.15625 50.109375 -102.90625 L 50.109375 -89.65625 C 52.648438 -95.789062 56.765625 -100.84375 62.453125 -104.8125 C 68.148438 -108.78125 74.96875 -110.765625 82.90625 -110.765625 C 87.101562 -110.765625 91.484375 -110.164062 96.046875 -108.96875 C 100.617188 -107.769531 104.585938 -106.125 107.953125 -104.03125 C 111.328125 -101.9375 113.238281 -99.460938 113.6875 -96.609375 C 113.988281 -95.117188 113.6875 -93.25 112.78125 -91 C 111.882812 -88.75 109.789062 -87.625 106.5 -87.625 C 104.101562 -87.625 101.816406 -88.257812 99.640625 -89.53125 C 97.472656 -90.8125 95.078125 -92.050781 92.453125 -93.25 C 89.835938 -94.445312 86.359375 -95.046875 82.015625 -95.046875 C 76.171875 -95.046875 70.8125 -93.582031 65.9375 -90.65625 C 61.070312 -87.738281 57.21875 -83.84375 54.375 -78.96875 C 51.53125 -74.101562 50.109375 -68.601562 50.109375 -62.46875 L 50.109375 -15.734375 L 81.5625 -15.734375 C 83.65625 -15.734375 85.488281 -14.945312 87.0625 -13.375 C 88.632812 -11.800781 89.421875 -9.960938 89.421875 -7.859375 C 89.421875 -5.765625 88.632812 -3.929688 87.0625 -2.359375 C 85.488281 -0.785156 83.65625 0 81.5625 0 Z M 21.125 0 "/></g></g></g></g></g></svg>